<?xml version="1.0" encoding="utf-8"?>
<svg viewBox="-585.4798835 -774 2048 2048" xmlns="http://www.w3.org/2000/svg" xmlns:xlink="http://www.w3.org/1999/xlink">
  <polygon style="fill: transparent; stroke: transparent; " points="79.73 30.12 79.73 -280.775 347.544 -280.775 347.544 -634.026 -461.024 -634.026 -461.024 -271.269 -166.659 -271.269 -166.659 -144.777 -104.03 -144.777 -104.03 -86.775 -44.794 -86.775 -44.794 -25.515 29.803 -25.515 29.803 32.364" transform="matrix(0.9999999999999999, 0, 0, 0.9999999999999999, -2.2737367544323206e-13, -2.2737367544323206e-13)"/>
  <polygon style="fill: transparent; stroke: transparent; " points="635.743 -188.274 1231.887 -188.274 1231.887 -630.633 351.056 -630.633 351.056 -271.573 635.747 -271.573" transform="matrix(0.9999999999999999, 0, 0, 0.9999999999999999, -2.2737367544323206e-13, -2.2737367544323206e-13)"/>
  <polygon style="fill: transparent; stroke: transparent; " points="935.478 171.631 1212.928 423.453 1046.904 675.274 725.998 405.625" transform="matrix(0.9999999999999999, 0, 0, 0.9999999999999999, -2.2737367544323206e-13, -2.2737367544323206e-13)"/>
  <polygon style="fill: transparent; stroke: transparent; " points="1238.555 266.343 1238.555 11.88 790.101 11.88 790.101 306.783 941.049 140.432 1231.87 375.54" transform="matrix(0.9999999999999999, 0, 0, 0.9999999999999999, -2.2737367544323206e-13, -2.2737367544323206e-13)"/>
  <polygon style="fill: transparent; stroke: transparent; " points="546.603 1081.977 546.603 747.671 266.925 797.842 -45.066 767.757 -45.066 1075.582 273.611 1039.636" transform="matrix(0.9999999999999999, 0, 0, 0.9999999999999999, -2.2737367544323206e-13, -2.2737367544323206e-13)"/>
  <rect x="-260.118" y="525.964" width="431.217" height="215.051" style="fill: transparent; stroke: transparent; " transform="matrix(0.9999999999999999, 0, 0, 0.9999999999999999, -2.2737367544323206e-13, -2.2737367544323206e-13)"/>
  <rect x="-420.57" y="-219.844" width="192.766" height="719.809" style="fill: transparent; stroke: transparent; " transform="matrix(0.9999999999999999, 0, 0, 0.9999999999999999, -2.2737367544323206e-13, -2.2737367544323206e-13)"/>
  <rect x="1080.331" y="664.998" width="265.193" height="480.244" style="fill: transparent; stroke: transparent; " transform="matrix(0.9999999999999999, 0, 0, 0.9999999999999999, -2.2737367544323206e-13, -2.2737367544323206e-13)"/>
  <rect x="639.705" y="-182.578" width="590.555" height="184.966" style="fill: transparent; stroke: transparent; " transform="matrix(0.9999999999999999, 0, 0, 0.9999999999999999, -2.2737367544323206e-13, -2.2737367544323206e-13)"/>
  <rect x="1238.06" y="-630.88" width="178.281" height="1292.536" style="fill: transparent; stroke: transparent; " transform="matrix(0.9999999999999999, 0, 0, 0.9999999999999999, -2.2737367544323206e-13, -2.2737367544323206e-13)"/>
  <rect x="764.502" y="784.843" width="310.877" height="304.192" style="fill: transparent; stroke: transparent; " transform="matrix(0.9999999999999999, 0, 0, 0.9999999999999999, -2.2737367544323206e-13, -2.2737367544323206e-13)"/>
  <ellipse style="fill: transparent; stroke: transparent; " cx="10.151" cy="294.571" rx="197.952" ry="197.952" transform="matrix(0.9999999999999999, 0, 0, 0.9999999999999999, -2.2737367544323206e-13, -2.2737367544323206e-13)"/>
  <ellipse style="fill: transparent; stroke: transparent; " transform="matrix(-0.6785590648651122, 0.7345460653305053, -0.7345460653305053, -0.6785590648651122, 1227.7740478515623, 510.93307495117165)" cx="502.095" cy="524.107" rx="248.777" ry="171.647"/>
  <polygon style="fill: transparent; stroke: transparent; " points="752.245 509.622 580.65 710.188 605.163 772.586 1021.895 770.357 1021.895 682.303" transform="matrix(0.9999999999999999, 0, 0, 0.9999999999999999, -2.2737367544323206e-13, -2.2737367544323206e-13)"/>
  <polygon style="fill: transparent; stroke: transparent; " points="85.921 -274.937 85.921 102.004 165.033 149.594 205.146 228.706 627.66 228.706 627.66 -265.325 326.938 -265.325" transform="matrix(0.9999999999999999, 0, 0, 0.9999999999999999, -2.2737367544323206e-13, -2.2737367544323206e-13)"/>
</svg>